<svg width="100" height="100" viewBox="0 0 100 100" fill="none" xmlns="http://www.w3.org/2000/svg">
<rect width="100" height="100" rx="25" fill="#D9D9D9"/>
<path d="M37.376 76V53.32H32.048V44.392H37.376V33.448C37.376 29.32 38.552 25.96 40.904 23.368C43.304 20.728 46.76 19.408 51.272 19.408C52.616 19.408 54.104 19.624 55.736 20.056C57.416 20.44 58.88 21.088 60.128 22L55.88 29.272C55.4 28.648 54.824 28.24 54.152 28.048C53.528 27.808 52.928 27.688 52.352 27.688C50.912 27.688 49.736 28.168 48.824 29.128C47.912 30.088 47.456 31.624 47.456 33.736V44.392H56.96V53.32H47.456V76H37.376ZM59.537 70.816C59.537 69.328 60.065 68.08 61.121 67.072C62.225 66.064 63.425 65.56 64.721 65.56C65.921 65.56 67.049 66.064 68.105 67.072C69.209 68.08 69.761 69.328 69.761 70.816C69.761 72.4 69.209 73.672 68.105 74.632C67.049 75.544 65.921 76 64.721 76C63.425 76 62.225 75.544 61.121 74.632C60.065 73.672 59.537 72.4 59.537 70.816Z" fill="#050505"/>
</svg>
